<svg width="33" height="32" viewBox="0 0 33 32" fill="none"
    xmlns="http://www.w3.org/2000/svg">
    <path fill-rule="evenodd" clip-rule="evenodd" d="M14.4728 3.19237C15.0842 2.83613 15.7791 2.64844 16.4867 2.64844C17.1942 2.64844 17.8891 2.83613 18.5005 3.19237C19.1111 3.54816 19.6165 4.05935 19.9653 4.6739C19.9658 4.67467 19.9662 4.67545 19.9667 4.67623L30.628 23.3336C30.6285 23.3344 30.6289 23.3351 30.6293 23.3359C30.9794 23.9431 31.1637 24.6317 31.1639 25.3326C31.1641 26.0344 30.9796 26.7239 30.629 27.3319C30.2785 27.9398 29.7741 28.4448 29.1666 28.7962C28.5591 29.1476 27.8698 29.3329 27.168 29.3336H5.83879C5.13585 29.3388 4.44391 29.1586 3.83271 28.8112C3.21962 28.4628 2.70955 27.9584 2.35421 27.3492C1.99887 26.7401 1.8109 26.0478 1.80934 25.3426C1.80778 24.6385 1.99211 23.9465 2.34367 23.3364C2.34422 23.3355 2.34477 23.3345 2.34532 23.3336L13.0067 4.67623C13.0071 4.67545 13.0075 4.67467 13.008 4.6739C13.3568 4.05934 13.8622 3.54816 14.4728 3.19237ZM16.4867 5.3151C16.2508 5.3151 16.0192 5.37767 15.8154 5.49641C15.6116 5.61516 15.4429 5.78584 15.3267 5.99103L15.3243 5.99515L4.65467 24.667C4.53712 24.8706 4.47548 25.1016 4.476 25.3367C4.47652 25.5718 4.53918 25.8025 4.65762 26.0056C4.77607 26.2086 4.94609 26.3767 5.15045 26.4929C5.35482 26.6091 5.58626 26.6691 5.82132 26.667L5.83332 26.6669L27.1653 26.667C27.3992 26.6667 27.629 26.6049 27.8315 26.4878C28.034 26.3707 28.2021 26.2024 28.319 25.9997C28.4358 25.7971 28.4973 25.5672 28.4973 25.3333C28.4972 25.0994 28.4356 24.8696 28.3186 24.667L28.3157 24.6618L17.649 5.99515L17.6467 5.99103C17.5304 5.78584 17.3617 5.61516 17.1579 5.49641C16.9542 5.37767 16.7225 5.3151 16.4867 5.3151Z" fill="#C32518"/>
    <path fill-rule="evenodd" clip-rule="evenodd" d="M16.5001 10.667C17.2365 10.667 17.8334 11.2639 17.8334 12.0003V17.3337C17.8334 18.07 17.2365 18.667 16.5001 18.667C15.7637 18.667 15.1667 18.07 15.1667 17.3337V12.0003C15.1667 11.2639 15.7637 10.667 16.5001 10.667Z" fill="#C32518"/>
    <path fill-rule="evenodd" clip-rule="evenodd" d="M15.1667 22.6663C15.1667 21.93 15.7637 21.333 16.5001 21.333H16.5134C17.2498 21.333 17.8467 21.93 17.8467 22.6663C17.8467 23.4027 17.2498 23.9997 16.5134 23.9997H16.5001C15.7637 23.9997 15.1667 23.4027 15.1667 22.6663Z" fill="#C32518"/>
</svg>
