<svg width="24" height="20" viewBox="0 0 24 20" fill="none"
    xmlns="http://www.w3.org/2000/svg">
    <path d="M14.4713 12.6848C14.9055 13.2354 15.4862 13.6523 16.1467 13.8877C16.8072 14.1231 17.5207 14.1673 18.2053 14.0153C19.5922 13.7206 20.3309 12.8388 20.1274 11.8812C19.8835 10.734 18.8864 10.5206 17.2187 10.1769L16.3051 9.99593C13.6716 9.4803 11.7926 8.53236 11.2134 5.80747C10.6797 3.29677 12.1868 0.979969 15.1758 0.344644C16.1309 0.0680529 17.1464 0.0791551 18.0952 0.376563C19.0441 0.673971 19.8842 1.24449 20.5106 2.01678L18.2598 4.24429C17.9978 3.85129 17.6225 3.5473 17.1837 3.3727C16.7449 3.19811 16.2633 3.16119 15.803 3.26684C15.5974 3.28937 15.3987 3.35451 15.2196 3.45811C15.0406 3.5617 14.8851 3.70148 14.763 3.86851C14.641 4.03555 14.5551 4.22619 14.5108 4.42827C14.4666 4.63035 14.4649 4.83943 14.5059 5.04219C14.7194 6.04666 15.4278 6.32034 16.9919 6.63803L17.9052 6.81805C21.0087 7.43314 22.8779 8.33511 23.4721 11.1304C24.1126 14.1438 22.0966 16.2979 18.9169 16.9738C17.6951 17.3158 16.4004 17.297 15.1891 16.9196C13.9777 16.5423 12.9014 15.8224 12.09 14.847L14.4713 12.6848ZM2.71081 15.4912C3.43534 16.3125 4.08118 16.9991 5.22845 16.7553C6.32779 16.5216 6.93075 15.9436 6.57525 14.2711L4.1564 2.89133L7.50334 2.17992L9.93217 13.6067C10.6687 17.072 8.97165 19.0816 6.00616 19.7119C4.97069 19.9913 3.87491 19.9506 2.86299 19.5954C1.85106 19.2401 0.970389 18.5868 0.336843 17.7214L2.71081 15.4912Z" fill="#020817"/>
</svg>
