<svg width="33" height="32" viewBox="0 0 33 32" fill="none"
    xmlns="http://www.w3.org/2000/svg">
    <path fill-rule="evenodd" clip-rule="evenodd" d="M4.50001 18.667C5.23638 18.667 5.83334 19.2639 5.83334 20.0003V25.3337C5.83334 25.6873 5.97381 26.0264 6.22386 26.2765C6.47391 26.5265 6.81305 26.667 7.16667 26.667H25.8333C26.187 26.667 26.5261 26.5265 26.7761 26.2765C27.0262 26.0264 27.1667 25.6873 27.1667 25.3337V20.0003C27.1667 19.2639 27.7636 18.667 28.5 18.667C29.2364 18.667 29.8333 19.2639 29.8333 20.0003V25.3337C29.8333 26.3945 29.4119 27.4119 28.6618 28.1621C27.9116 28.9122 26.8942 29.3337 25.8333 29.3337H7.16667C6.10581 29.3337 5.08839 28.9122 4.33824 28.1621C3.5881 27.4119 3.16667 26.3945 3.16667 25.3337V20.0003C3.16667 19.2639 3.76363 18.667 4.50001 18.667Z" fill="#64748B"/>
    <path fill-rule="evenodd" clip-rule="evenodd" d="M8.89052 12.3905C9.41122 11.8698 10.2554 11.8698 10.7761 12.3905L16.5 18.1144L22.2239 12.3905C22.7446 11.8698 23.5888 11.8698 24.1095 12.3905C24.6302 12.9112 24.6302 13.7554 24.1095 14.2761L17.4428 20.9428C16.9221 21.4635 16.0779 21.4635 15.5572 20.9428L8.89052 14.2761C8.36983 13.7554 8.36983 12.9112 8.89052 12.3905Z" fill="#64748B"/>
    <path fill-rule="evenodd" clip-rule="evenodd" d="M16.5 2.66699C17.2364 2.66699 17.8333 3.26395 17.8333 4.00033V20.0003C17.8333 20.7367 17.2364 21.3337 16.5 21.3337C15.7636 21.3337 15.1667 20.7367 15.1667 20.0003V4.00033C15.1667 3.26395 15.7636 2.66699 16.5 2.66699Z" fill="#64748B"/>
</svg>
