<svg width="33" height="32" viewBox="0 0 33 32" fill="none"
    xmlns="http://www.w3.org/2000/svg">
    <path fill-rule="evenodd" clip-rule="evenodd" d="M16.5 3.99967C9.87256 3.99967 4.49998 9.37226 4.49998 15.9997C4.49998 22.6271 9.87256 27.9997 16.5 27.9997C23.1274 27.9997 28.5 22.6271 28.5 15.9997C28.5 9.37226 23.1274 3.99967 16.5 3.99967ZM1.83331 15.9997C1.83331 7.8995 8.3998 1.33301 16.5 1.33301C24.6002 1.33301 31.1666 7.8995 31.1666 15.9997C31.1666 24.0998 24.6002 30.6663 16.5 30.6663C8.3998 30.6663 1.83331 24.0998 1.83331 15.9997Z" fill="#64748B"/>
    <path fill-rule="evenodd" clip-rule="evenodd" d="M16.5 14.667C17.2364 14.667 17.8334 15.2639 17.8334 16.0003V21.3337C17.8334 22.07 17.2364 22.667 16.5 22.667C15.7636 22.667 15.1667 22.07 15.1667 21.3337V16.0003C15.1667 15.2639 15.7636 14.667 16.5 14.667Z" fill="#64748B"/>
    <path fill-rule="evenodd" clip-rule="evenodd" d="M15.1667 10.6663C15.1667 9.92996 15.7636 9.33301 16.5 9.33301H16.5134C17.2497 9.33301 17.8467 9.92996 17.8467 10.6663C17.8467 11.4027 17.2497 11.9997 16.5134 11.9997H16.5C15.7636 11.9997 15.1667 11.4027 15.1667 10.6663Z" fill="#64748B"/>
</svg>
