<svg width="28" height="26" viewBox="0 0 28 26" fill="none"
    xmlns="http://www.w3.org/2000/svg">
    <path d="M13.559 15.0761C14.7166 15.3221 15.8545 14.5832 16.1005 13.4256C16.3466 12.268 15.6076 11.1301 14.45 10.884C13.2924 10.6379 12.1545 11.3769 11.9085 12.5345C11.6624 13.6921 12.4014 14.83 13.559 15.0761Z" fill="white"/>
    <path d="M12.9831 17.7852C10.4508 17.3106 8.00998 16.4369 5.75182 15.1966C4.71235 14.6064 3.79112 13.8288 3.03468 12.9033C2.73982 12.5793 2.51852 12.1954 2.38597 11.7779C2.25343 11.3604 2.21277 10.9192 2.2668 10.4845C2.56138 9.09858 4.37264 8.06398 7.11199 7.71738C9.75666 7.45647 12.4261 7.62498 15.017 8.2164C17.5891 8.72566 20.0631 9.64321 22.3452 10.9343C23.3459 11.5046 24.2376 12.2478 24.9789 13.1293C25.2703 13.4403 25.4898 13.8116 25.6217 14.2168C25.7536 14.6221 25.7948 15.0514 25.7423 15.4744C25.4362 16.9148 23.4239 18.0127 20.4895 18.3371C17.9739 18.5379 15.4423 18.3518 12.9831 17.7852ZM14.8038 9.21914C12.3243 8.65735 9.77108 8.49387 7.24011 8.73482C4.71844 9.05496 3.42815 9.95143 3.27007 10.6951C3.1047 11.4731 3.9757 12.9368 6.27856 14.314C8.43959 15.497 10.7744 16.3302 13.1962 16.7825C15.5485 17.3266 17.9703 17.5074 20.3774 17.3186C23.1371 17.0123 24.5712 16.0369 24.7362 15.2605C24.7506 14.9851 24.7076 14.7097 24.6101 14.4517C24.5126 14.1937 24.3627 13.9588 24.1698 13.7617C23.5054 12.9783 22.708 12.3181 21.8143 11.8116C19.6305 10.5796 17.2638 9.70441 14.8038 9.21914Z" fill="white"/>
    <path d="M7.02029 22.4223C6.62726 22.3481 6.26092 22.1711 5.95862 21.9092C4.90522 20.9615 4.91386 18.876 5.98178 16.3295C7.07713 13.9081 8.55689 11.6798 10.3637 9.73094C12.0896 7.75729 14.12 6.07247 16.3782 4.74036C17.3722 4.15834 18.4615 3.75705 19.5955 3.55509C20.0107 3.45839 20.4421 3.45421 20.8591 3.54285C21.2761 3.63149 21.6685 3.81076 22.0085 4.06798C23.104 5.05269 23.049 7.3439 21.8652 10.048C20.7819 12.328 19.3555 14.4283 17.6356 16.2759C15.9594 18.2324 13.983 19.9103 11.7804 21.2468C10.7498 21.8522 9.61614 22.2616 8.43658 22.4543C7.96605 22.5235 7.48721 22.5126 7.02029 22.4223ZM11.1265 10.4136C9.40121 12.2808 7.98417 14.4108 6.92855 16.7235C5.94542 19.069 6.07822 20.6333 6.64599 21.1448C7.23421 21.6756 8.94064 21.6536 11.2847 20.3467C13.3886 19.0649 15.2762 17.4579 16.8772 15.5854C18.5239 13.8196 19.8907 11.8122 20.9299 9.63277C22.044 7.08736 21.9168 5.3568 21.3267 4.82653C21.0952 4.6764 20.8351 4.57593 20.5628 4.53147C20.2905 4.48701 20.0119 4.49954 19.7447 4.56825C18.734 4.75418 17.764 5.11696 16.8793 5.63991C14.7209 6.91688 12.7804 8.53054 11.1313 10.4199L11.1265 10.4136Z" fill="white"/>
    <path d="M16.5398 24.4564C15.4037 24.2149 14.1069 23.2207 12.8791 21.6094C11.3283 19.4512 10.1367 17.0563 9.35048 14.5176C8.5027 12.0366 8.05734 9.43591 8.03129 6.81417C8.02333 5.66145 8.21983 4.51646 8.61166 3.43236C8.73543 3.02561 8.94693 2.65097 9.23125 2.33485C9.51556 2.01873 9.86576 1.76883 10.2572 1.60278C11.6573 1.14591 13.6149 2.33752 15.3664 4.71303C16.8008 6.78993 17.9081 9.07452 18.6498 11.4871C19.5077 13.9166 19.9742 16.4669 20.0319 19.0427C20.0417 20.2381 19.8302 21.4249 19.4079 22.5432C19.2753 22.9605 19.054 23.3443 18.7592 23.6681C18.4644 23.9918 18.1031 24.2481 17.7 24.4191C17.3234 24.5342 16.923 24.5471 16.5398 24.4564ZM10.3255 14.1974C11.0815 16.6245 12.219 18.9159 13.6953 20.9854C15.236 23.0086 16.6576 23.6753 17.381 23.4338C18.1346 23.1865 18.9675 21.7004 19.0051 19.0173C18.9443 16.5568 18.4946 14.1215 17.6724 11.8017C16.9659 9.49329 15.9103 7.30666 14.5421 5.31771C12.8933 3.08147 11.3307 2.32783 10.5765 2.57411C10.331 2.69972 10.1142 2.87486 9.93988 3.08847C9.76551 3.30208 9.63734 3.54953 9.56344 3.81518C9.21841 4.78295 9.04677 5.80399 9.0564 6.83139C9.08442 9.33928 9.51302 11.8266 10.326 14.1992L10.3255 14.1974Z" fill="white"/>
</svg>
