<svg width="28" height="32" viewBox="0 0 28 32" fill="none"
    xmlns="http://www.w3.org/2000/svg">
    <path d="M12.0705 29.3541C11.709 29.3035 11.3671 29.1585 11.0794 28.9337L8.07471 26.533C7.62408 26.1905 7.876 26.1273 8.04569 26.0936C8.58848 26.006 9.11818 25.8509 9.62251 25.6319C9.66391 25.6194 9.70781 25.6176 9.75008 25.6268C9.79234 25.636 9.83156 25.6558 9.86403 25.6844L12.1721 27.5344C12.2155 27.5658 12.2659 27.5861 12.319 27.5935C12.372 27.601 12.4261 27.5954 12.4765 27.5771L23.0936 23.289C23.1434 23.2679 23.1869 23.2343 23.2198 23.1913C23.2527 23.1484 23.2739 23.0976 23.2813 23.044L24.8748 11.7054C24.8825 11.651 24.876 11.5955 24.856 11.5444C24.8361 11.4932 24.8032 11.448 24.7607 11.4132L15.7361 4.36944C15.6935 4.33685 15.6432 4.3158 15.59 4.30833C15.5369 4.30086 15.4827 4.30722 15.4327 4.32679L4.82171 8.61288C4.771 8.63399 4.7266 8.66783 4.69281 8.71114C4.65902 8.75444 4.63699 8.80573 4.62885 8.86005L3.03598 20.1939C3.02861 20.2473 3.03557 20.3018 3.05618 20.3517C3.07678 20.4016 3.11027 20.4451 3.15323 20.4778L5.62823 22.4108C6.9854 23.3453 8.0002 22.6114 8.12154 21.748L9.69422 10.5578C9.69952 10.5201 9.71219 10.4838 9.73152 10.451C9.75085 10.4181 9.77645 10.3895 9.80686 10.3665C9.83727 10.3436 9.8719 10.3269 9.90877 10.3174C9.94563 10.3079 9.98402 10.3057 10.0217 10.311L11.266 10.4859C11.3422 10.4966 11.411 10.5371 11.4573 10.5985C11.5035 10.6599 11.5235 10.7372 11.5128 10.8134L9.94001 22.0045C9.66626 23.9524 8.44901 24.9184 6.60168 24.6588C5.80277 24.5607 5.04826 24.2373 4.42626 23.7264L2.05289 21.8829C1.76515 21.6564 1.54187 21.3583 1.40533 21.0185C1.2688 20.6787 1.22379 20.309 1.2748 19.9463L2.86766 8.61253C2.91778 8.24918 3.06264 7.90543 3.2877 7.61581C3.51276 7.32618 3.81009 7.1009 4.1498 6.96259L14.7682 2.67266C15.1089 2.54404 15.4765 2.50318 15.8371 2.55387C16.1977 2.60455 16.5398 2.74514 16.8318 2.96269L25.8554 10.0131C26.1432 10.2393 26.3666 10.537 26.5033 10.8765C26.6401 11.216 26.6854 11.5854 26.6348 11.9479L25.0412 23.2865C24.9897 23.6491 24.8442 23.9918 24.6192 24.2808C24.3942 24.5697 24.0975 24.7947 23.7585 24.9334L13.1411 29.2235C12.8019 29.3604 12.4327 29.4055 12.0705 29.3541Z" fill="white"/>
    <path d="M11.8286 17.5619C11.8393 17.4857 11.8798 17.417 11.9412 17.3707C12.0026 17.3244 12.0799 17.3044 12.1561 17.3151L13.4262 17.4936C13.4941 17.5034 13.5562 17.5368 13.6018 17.5881C13.6473 17.6393 13.6732 17.705 13.6748 17.7735C13.6845 19.0936 14.1672 19.8261 16.764 20.1911C18.8324 20.4818 19.7798 20.1376 19.9341 19.0398C20.023 18.4071 19.8392 17.902 16.6683 17.1352C14.018 16.4914 12.4401 15.6625 12.7419 13.5146C13.0204 11.5333 14.8568 10.5859 17.6565 10.9794C20.8027 11.4216 22.2065 12.7326 22.0744 15.1034C22.0719 15.143 22.0613 15.1816 22.0433 15.2169C22.0253 15.2522 22.0003 15.2834 21.9698 15.3087C21.9393 15.3339 21.9039 15.3527 21.8658 15.3637C21.8278 15.3747 21.7879 15.3779 21.7486 15.3729L20.4698 15.1932C20.4058 15.1833 20.3469 15.1522 20.3026 15.1049C20.2583 15.0577 20.2311 14.9969 20.2253 14.9324C20.1111 13.5293 19.4247 12.9897 17.4146 12.7072C15.1557 12.3898 14.7829 13.1397 14.7 13.7293C14.5997 14.4434 14.8805 14.6956 17.8733 15.5271C20.8352 16.3504 22.1897 17.1167 21.8916 19.2378C21.5908 21.378 19.6344 22.3524 16.5227 21.9151C12.2194 21.3161 11.596 19.2168 11.8286 17.5619Z" fill="white"/>
</svg>
